<?xml version="1.0" encoding="utf-8"?>
<!-- Generator: Adobe Illustrator 24.1.2, SVG Export Plug-In . SVG Version: 6.00 Build 0)  -->
<svg version="1.1" id="圖層_1" xmlns="http://www.w3.org/2000/svg" xmlns:xlink="http://www.w3.org/1999/xlink" x="0px" y="0px"
	 viewBox="0 0 41.8 41.8" style="enable-background:new 0 0 41.8 41.8;" xml:space="preserve">
<style type="text/css">
	.st0{fill:url(#Path_118_1_);}
	.st1{fill:#62DB54;}
	.st2{fill:#09ACF5;}
</style>
<g id="logo" transform="translate(-138 -23.111)">
	<g id="logo-2" transform="translate(138 23.111)">
		
			<linearGradient id="Path_118_1_" gradientUnits="userSpaceOnUse" x1="-645.6592" y1="-98.1374" x2="-645.6592" y2="-97.1374" gradientTransform="matrix(41.791 0 0 41.779 27003.6426 4100.0986)">
			<stop  offset="0" style="stop-color:#09ACF5"/>
			<stop  offset="1" style="stop-color:#62DB54"/>
		</linearGradient>
		<path id="Path_118" class="st0" d="M34.9,41.8h-28c-3.8-0.1-6.9-3.2-6.9-7V19.6c0-1.9,0.8-3.8,2.3-5.1l14-12.7
			c2.6-2.3,6.6-2.3,9.2,0l14,12.7c1.5,1.3,2.3,3.1,2.3,5.1v15.2C41.8,38.6,38.7,41.7,34.9,41.8z M20.9,4.3c-0.7,0-1.3,0.2-1.9,0.6
			L5,17.6c-0.6,0.5-0.9,1.3-0.8,2.1V35c0,1.5,1.2,2.7,2.7,2.8h27.8c1.5,0,2.7-1.3,2.7-2.8V19.8c-0.1-0.8-0.4-1.5-0.8-2.1L22.6,5
			C22.1,4.5,21.5,4.3,20.9,4.3z"/>
		<path class="st1" d="M16.3,31.8c-0.4,0-0.8-0.1-1.1-0.4l-5.6-5.6c-0.6-0.6-0.6-1.5,0-2.1l5.6-5.6c0.6-0.6,1.5-0.6,2.1,0
			s0.6,1.5,0,2.1l-4.5,4.5l4.5,4.5c0.6,0.6,0.6,1.5,0,2.1C17.1,31.6,16.7,31.8,16.3,31.8z"/>
		<path class="st2" d="M25.6,31.8c-0.4,0-0.8-0.1-1.1-0.4c-0.6-0.6-0.6-1.5,0-2.1l4.5-4.5l-4.5-4.5c-0.6-0.6-0.6-1.5,0-2.1
			s1.5-0.6,2.1,0l5.6,5.6c0.3,0.3,0.4,0.7,0.4,1.1s-0.2,0.8-0.4,1.1l-5.6,5.6C26.4,31.6,26,31.8,25.6,31.8z"/>
	</g>
</g>
</svg>
